<svg xmlns="http://www.w3.org/2000/svg" xmlns:xlink="http://www.w3.org/1999/xlink" width="500" zoomAndPan="magnify" viewBox="0 0 375 374.999991" height="500" preserveAspectRatio="xMidYMid meet" version="1.0"><defs><clipPath id="id1"><path d="M 0 59 L 316 59 L 316 373.800781 L 0 373.800781 Z M 0 59 " clip-rule="nonzero"/></clipPath><clipPath id="id2"><path d="M 58 0 L 373.800781 0 L 373.800781 315 L 58 315 Z M 58 0 " clip-rule="nonzero"/></clipPath><clipPath id="id3"><path d="M 101.070312 204.230469 L 170.769531 204.230469 L 170.769531 273.929688 L 101.070312 273.929688 Z M 101.070312 204.230469 " clip-rule="nonzero"/></clipPath></defs><g clip-path="url(#id1)"><path fill="#222222" d="M 315.132812 375.316406 L 0 375.316406 L 0 59.898438 L 315.132812 59.898438 Z M 5.027344 370.28125 L 310.105469 370.28125 L 310.105469 64.929688 L 5.027344 64.929688 Z M 5.027344 370.28125 " fill-opacity="1" fill-rule="nonzero"/></g><path fill="#222222" d="M 343.628906 343.4375 L 28.496094 343.4375 L 28.496094 28.019531 L 343.628906 28.019531 Z M 33.523438 338.40625 L 338.601562 338.40625 L 338.601562 33.054688 L 33.523438 33.054688 Z M 33.523438 338.40625 " fill-opacity="1" fill-rule="nonzero"/><g clip-path="url(#id2)"><path fill="#222222" d="M 373.800781 314.246094 L 58.667969 314.246094 L 58.667969 -1.171875 L 373.800781 -1.171875 Z M 63.695312 309.210938 L 368.773438 309.210938 L 368.773438 3.859375 L 63.695312 3.859375 Z M 63.695312 309.210938 " fill-opacity="1" fill-rule="nonzero"/></g><g clip-path="url(#id3)"><path fill="#222222" d="M 101.070312 204.230469 L 170.769531 204.230469 L 170.769531 273.929688 L 101.070312 273.929688 Z M 101.070312 204.230469 " fill-opacity="1" fill-rule="nonzero"/></g></svg>